<?xml version="1.0" encoding="UTF-8"?><svg id="a" xmlns="http://www.w3.org/2000/svg" xmlns:xlink="http://www.w3.org/1999/xlink" viewBox="0 0 160 160"><defs><style>.d,.e{fill:none;}.f{fill:#f1a4aa;}.f,.g,.h{opacity:.4;}.i,.j{fill:#231f20;}.j{stroke-width:.6px;}.j,.e{stroke:#231f20;stroke-miterlimit:10;}.g{fill:#811c29;}.e{stroke-width:6.05px;}.k{fill:#fff;}.h{fill:#be1e2d;}.l{clip-path:url(#c);}.m{clip-path:url(#b);}</style><clipPath id="b"><rect class="d" x="-11.04" y="-1.15" width="162.03" height="162.03"/></clipPath><clipPath id="c"><rect class="d" x="-4.87" y="5.2" width="153.35" height="153.35"/></clipPath></defs><rect class="k" x="-2.36" y="-2.16" width="165.68" height="167.23"/><circle class="h" cx="114.67" cy="87.54" r="40.81"/><circle class="g" cx="56.42" cy="129.65" r="28.6"/><circle class="f" cx="66.76" cy="26.67" r="22.6"/><g class="m"><g class="l"><path class="e" d="M75.69,60.72c11.47,12.02,36.98,8.66,39.68,13.54,2.2,3.98-2,8.87.5,13.14,3.29,5.82,10.13,9.69,13.8,14.92,2.43,3.09,3.33,7.23-.63,9.46-3.09,2.12-8.27,3.55-8.66,7.88-.51,8.2,12.07,13.42,11.27,21.89-.61,6.76-8.75,7.54-13.9,5.23-10.55-4.22-19.18-12.2-29.5-16.55-10.48-3.89-12.62,3.29-10.53,12.24.97,4.88-.36,8.67-5.41,8.93-10.3.22-19.16-2.4-25.23-10.88-3.74-5.5-13.67-25.6-20.59-34.77"/><path class="j" d="M35.51,98.1c3.14,4.85,10.27,9.32,18.29,10.87,13.05,2.52,24.79-3.38,27.06-15.17,2.15-11.17-4.83-17.24-12.66-23.15-6.85-5.07-15.37-10.79-13.49-20.54,1.55-8.02,8.77-12.5,16.95-10.92,5.5,1.06,9.7,3.83,12.55,7.64l-4.41,3.39c-1.93-2.66-5.12-4.74-9.05-5.5-5.03-.97-9.44,1.6-10.38,6.48-1.24,6.45,5.16,10.45,12.99,16.37,8.97,6.78,15.74,13.96,13.16,27.33-2.88,14.94-17.59,22.7-33.78,19.58-9.28-1.79-17.7-7.16-21.13-13.04l3.9-3.33ZM42.79,91.68c2.47,3.25,7.05,6.58,12.87,7.7,7.23,1.39,13.94-1.23,15.15-7.52,1.46-7.55-5.45-11.49-14.16-17.9-8.14-5.97-14.38-13.37-11.99-25.8,2.64-13.68,15.18-21.21,28.7-18.6,7.55,1.46,14.39,5.71,18.01,11.46l-4.22,3.26c-2.89-4.47-8.72-8.04-14.7-9.19-10.38-2-20.11,3.63-22.14,14.16-2.15,11.16,5.24,16.83,13.07,22.74,6.66,5.2,15.03,10.89,13.08,20.95-1.94,10.06-11.02,14.02-21.87,11.93-7.08-1.36-12.85-5.25-15.93-9.59l4.12-3.61Z"/><path class="e" d="M95.52,37.12c-49.27-63.96-105.63-.52-50.92,48"/><rect class="k" x="-7.85" y="71.54" width="131.9" height="6.52" transform="translate(-36.31 67.19) rotate(-47.56)"/><circle class="i" cx="96.04" cy="121.5" r="5.33"/><circle class="i" cx="106.47" cy="128.2" r="3.15"/><circle class="i" cx="106.06" cy="114.15" r="5.33"/><circle class="i" cx="91.69" cy="109.46" r="3.15"/><circle class="i" cx="34.21" cy="31.15" r="2.58"/><circle class="i" cx="36.66" cy="38.05" r="1.52"/></g><circle class="i" cx="69.5" cy="52.86" r="5"/></g></svg>