<?xml version="1.0" encoding="UTF-8"?><svg id="a" xmlns="http://www.w3.org/2000/svg" xmlns:xlink="http://www.w3.org/1999/xlink" viewBox="0 0 160 160"><defs><style>.d,.e{fill:none;}.f,.g{fill:#231f20;}.g{stroke-width:.6px;}.g,.e{stroke:#231f20;stroke-miterlimit:10;}.e{stroke-width:6px;}.h{fill:#fff;}.i{clip-path:url(#c);}.j{clip-path:url(#b);}</style><clipPath id="b"><rect class="d" x="-6.05" y="-2.91" width="165" height="165"/></clipPath><clipPath id="c"><rect class="d" x=".24" y="3.55" width="156.16" height="156.16"/></clipPath></defs><rect class="h" x="-2.36" y="-2.94" width="165.68" height="167.23"/><g class="j"><g class="i"><path class="e" d="M82.27,60.08c11.68,12.24,37.65,8.82,40.4,13.79,2.24,4.05-2.04,9.03.5,13.38,3.35,5.93,10.31,9.87,14.05,15.2,2.47,3.15,3.4,7.36-.65,9.64-3.14,2.16-8.42,3.62-8.82,8.03-.52,8.35,12.29,13.67,11.48,22.29-.62,6.88-8.91,7.68-14.15,5.32-10.74-4.3-19.53-12.42-30.04-16.85-10.67-3.96-12.85,3.35-10.72,12.47.99,4.97-.37,8.83-5.5,9.09-10.49.23-19.51-2.44-25.69-11.08-3.81-5.6-13.92-26.07-20.97-35.4"/><path class="g" d="M41.35,98.16c3.2,4.94,10.46,9.49,18.63,11.06,13.29,2.56,25.24-3.44,27.56-15.45,2.19-11.37-4.92-17.56-12.89-23.58-6.98-5.17-15.65-10.99-13.74-20.92,1.57-8.17,8.93-12.73,17.26-11.12,5.6,1.08,9.88,3.9,12.78,7.78l-4.49,3.45c-1.97-2.71-5.21-4.83-9.22-5.6-5.12-.99-9.62,1.63-10.57,6.6-1.27,6.57,5.25,10.65,13.23,16.67,9.13,6.91,16.03,14.22,13.4,27.83-2.93,15.21-17.91,23.12-34.4,19.94-9.45-1.82-18.02-7.29-21.52-13.28l3.97-3.39ZM48.76,91.61c2.52,3.31,7.18,6.7,13.1,7.84,7.37,1.42,14.19-1.25,15.43-7.66,1.48-7.69-5.55-11.7-14.42-18.22-8.29-6.08-14.65-13.62-12.21-26.27,2.69-13.93,15.46-21.6,29.23-18.94,7.69,1.48,14.65,5.81,18.34,11.67l-4.29,3.32c-2.94-4.55-8.88-8.19-14.97-9.36-10.57-2.04-20.47,3.69-22.54,14.42-2.19,11.37,5.33,17.14,13.31,23.16,6.79,5.29,15.3,11.09,13.33,21.34-1.98,10.25-11.22,14.28-22.27,12.15-7.21-1.39-13.09-5.35-16.22-9.77l4.2-3.67Z"/><path class="e" d="M102.46,36.05c-50.17-65.13-108.06-.23-53.48,50.09"/><rect class="h" x="-2.87" y="71.79" width="134.31" height="6.64" transform="translate(-34.48 70.9) rotate(-47)"/><circle class="f" cx="102.99" cy="121.98" r="5.42"/><circle class="f" cx="113.62" cy="128.8" r="3.2"/><circle class="f" cx="113.2" cy="114.49" r="5.42"/><circle class="f" cx="98.57" cy="109.72" r="3.2"/><circle class="f" cx="38.91" cy="28.54" r="2.62"/><circle class="f" cx="41.23" cy="35.96" r="1.55"/></g><circle class="f" cx="75.64" cy="52.09" r="5"/></g></svg>